<?xml version="1.0" encoding="utf-8"?>
<!-- Generator: Adobe Illustrator 28.0.0, SVG Export Plug-In . SVG Version: 6.00 Build 0)  -->
<svg version="1.0" id="katman_1" xmlns="http://www.w3.org/2000/svg" xmlns:xlink="http://www.w3.org/1999/xlink" x="0px" y="0px"
	 viewBox="0 0 841.89 595.28" style="enable-background:new 0 0 841.89 595.28;" xml:space="preserve">
<style type="text/css">
	.st0{fill-rule:evenodd;clip-rule:evenodd;fill:#FFFFFF;stroke:#231815;stroke-width:0.4611;stroke-miterlimit:22.93;}
	.st1{fill-rule:evenodd;clip-rule:evenodd;fill:#F7E9D4;}
	.st2{fill-rule:evenodd;clip-rule:evenodd;fill:#E30618;}
	.st3{fill-rule:evenodd;clip-rule:evenodd;fill:#E8B346;}
	.st4{fill-rule:evenodd;clip-rule:evenodd;fill:#040304;}
	.st5{fill-rule:evenodd;clip-rule:evenodd;fill:#FFFFFF;}
	.st6{fill-rule:evenodd;clip-rule:evenodd;fill:#DD5A16;}
	.st7{fill-rule:evenodd;clip-rule:evenodd;fill:#D89B1E;}
	.st8{fill-rule:evenodd;clip-rule:evenodd;fill:#243981;}
	.st9{fill-rule:evenodd;clip-rule:evenodd;fill:#E69087;}
	.st10{fill-rule:evenodd;clip-rule:evenodd;fill:#F1BDC2;}
	.st11{fill-rule:evenodd;clip-rule:evenodd;fill:#DEDADD;}
	.st12{fill-rule:evenodd;clip-rule:evenodd;fill:#C51772;}
</style>
<g id="组_2321" transform="translate(22975.525 4859.061)">
	<path id="路径_4670" class="st0" d="M-22735.22-4821.42c0,13.89,15.98,11.16,22.83,19.82c5.51,6.95-0.93,14.58,2.08,17.04
		c0.88,0.74,2.32,1.25,3.33,1.97c5.97,4.61,3.15,8.52,3.71,11.44c0.56,2.92,7.82,2.5,7.41,13.89c0,5.56,0.74,3.95,2.69,7.83
		c1.57,2.64,1.57,5.92,0,8.56c-1.62,2.69-11.67,5.33-15.05,6.3c-5.69,1.63-11.5,2.82-17.37,3.57c-7.96,0.88-31.91,2.41-37.05-4.61
		c-3.7-5-1.02-11.48,1.48-16.25c2.5-4.77,0-3.95-1.07-7.73c-0.64-2.88-0.07-5.89,1.57-8.34c1.48-2.45,3.38-3.43,3.75-6.9
		s4.22-4.4,2.32-7.32c-0.69-1.11-1.62-1.52-1.8-3.61c-0.15-1.54,0.24-3.08,1.11-4.35c1.49-2.06,3.36-3.8,5.51-5.14
		c3.85-2.45,2.32-3.01,1.8-7.59c-0.4-3.1-0.15-6.26,0.74-9.26C-22745.42-4817.31-22740.71-4820.96-22735.22-4821.42z"/>
	<path id="路径_4671" class="st0" d="M-22528.95-4776.68c-1.8-1.48-2.92-1.32-4.08-3.57c-1.47-3.18-0.08-6.95,3.1-8.42
		c2.28-1.05,4.97-0.66,6.86,1.01c2.26,2.18,2.66,5.64,0.97,8.28c-0.37,1.58,0.42,1.35-0.66,3.02c-1.75,3.13-3.85,6.05-6.25,8.71
		l-2.13-1.11L-22528.95-4776.68z"/>
	<path id="路径_4672" class="st0" d="M-22571.91-4762.65c-3.41-1.49-6.48-3.69-8.98-6.44c-3.15-3.15-6.44-5.37-4.61-9.82
		c1.44-3.16,5.17-4.56,8.34-3.13c0.63,0.29,1.21,0.68,1.71,1.15c1.56,1.49,2.27,3.66,1.9,5.79c-0.46,2.5-2.08,2.92-3.1,4.61
		C-22575.35-4767.71-22573.76-4765.09-22571.91-4762.65z"/>
	<path id="路径_4673" class="st0" d="M-22530.85-4737.47c28.14-1.93,55.93,7.1,77.57,25.2c30.14,25.02,38.4,67.86,19.73,102.3
		c-0.88,1.67-2.6,1.39-4.61,1.94c-1.59,0.47-3.13,1.07-4.61,1.8c-8.8,4.16-15.08,12.29-16.86,21.86c-1.48,7.04,0.46,5.56-3.89,8.75
		c-22.73,16.57-50.26,25.25-78.38,24.73c-14.94-0.16-29.75-2.84-43.81-7.91c-12-4.22-23.13-10.61-32.84-18.84
		c-14.76-12.44-25.04-29.37-29.26-48.21l-1.57-11.35c-0.33-4.11-0.33-8.25,0-12.36c3.23-25.94,17.43-49.24,38.99-64
		c10.45-7.6,22.1-13.4,34.46-17.18c3.38-0.94,7.04-1.72,10.42-2.46c3.38-0.74,7.46-1.21,10.97-1.97c7.87-1.22,15.8-1.98,23.76-2.27
		L-22530.85-4737.47z"/>
	<path id="路径_4674" class="st0" d="M-22570.4-4306.67c17.08,4.64,34.85,6.2,52.47,4.61c103.96-7.96,125.04-79,129.1-99.46
		c0.51-2.46,0.88-4.95,1.32-7.46c1.22-5.78,1.61-11.7,1.16-17.59c-4.08-1.8-13.25,0-27.79-11.16c-6.93-5.84-13.15-12.47-18.52-19.76
		c-2.78,0.42-5.37,1.32-8.48,1.67c-8.64,0.92-17.37-0.23-25.47-3.38c-9.2-2.9-17.02-9.06-21.99-17.32
		c-5.46-9.95-7.55-21.4-5.97-32.64c0.64-5.41,1.95-10.72,3.89-15.81c1.8-4.51,4.12-8.79,6.9-12.77
		c-6.83-2.96-12.79-7.62-17.32-13.53c-2.78,0.38-7.18,1.85-10.24,2.5c-7.44,1.52-14.97,2.46-22.55,2.83
		c-4.22,0.32-3.15,0.6-8.1,4.17c-22.39,15.98-48.49,25.2-76.83,18.06c-6.21-1.63-12.18-4.04-17.78-7.18
		c-5.27-2.82-10.12-6.37-14.41-10.54c-6.98-0.28-13.92-1.27-20.7-2.97c-5.47-1.24-17.09-5.51-17.46-5.61c0,3.66,4.17,34.83,5,40.61
		l1.48,11.95c0,1.16,0,0.66,0.46,1.25c8.33,3.35,16.92,6.02,25.69,7.96c2.08,0.51,5.27,0.55,5.88,2.6
		c-0.19,2.24-0.75,4.43-1.67,6.48c-4.39,14.04-6.86,28.6-7.32,43.3c-1.21,51.92,30.75,107.07,79.56,125.96
		C-22577.56-4308.94-22573.03-4307.46-22570.4-4306.67z"/>
	<path id="路径_4675" class="st1" d="M-22760.27-4733.15c2.36,4.22,26.49,3.15,29.64,2.87c12.98-1.5,25.68-4.8,37.74-9.82
		c3.76-1.75,5.39-6.21,3.64-9.97c-0.24-0.52-0.55-1.02-0.9-1.47c-1.02-1.9-2.63-2.87-2.96-5.27c-0.46-3.89,1.32-10.42-6.02-14.78
		c-0.99-0.59-1.88-1.34-2.63-2.22c-0.46,1.8,0,0.66-1.25,2.04l-1.32,1.9c-0.92,1.23-1.92,2.39-3.01,3.47
		c-3.94,4.45-8.85,7.94-14.35,10.19c-3.66,2.5-7.67,4.44-11.9,5.74c-7.17,2-13.83,5.51-19.54,10.29
		C-22757.17-4736.67-22756.89-4732.22-22760.27-4733.15z"/>
	<path id="路径_4676" class="st1" d="M-22755.17-4779.23c-1.48,0.91-2.32,2.58-2.17,4.31c0,3.57-0.46,2.6-1.85,5.05l0.51,0.37
		c1.07,1.02-0.37,0.32,0.79,0.74c2.13,0.79,7.32-5.84,10.47-7.96c2.23-1.41,4.53-2.69,6.9-3.84c4.59-2.36,8.99-5.07,13.17-8.1
		c2.03-1.54,3.95-3.23,5.74-5.05c3.56-3.43,8.48-11.85,2.32-14.91c0.83-0.32-0.93-0.79,1.57,0c-3.9-2.42-8.15-4.23-12.59-5.37
		c1.79,3.77,1.79,8.14,0,11.9c-1.46,3.44-3.41,6.66-5.79,9.54c-4.28,5.16-10.02,8.89-16.47,10.7
		C-22754.3-4779.41-22756.19-4774.23-22755.17-4779.23z"/>
	<path id="路径_4677" class="st1" d="M-22701.54-4779.23c-0.41-7.91-10.37-5.7-8.8-12.37c0.23-1.11,0.6-2.12,0.74-3.24
		c0.24-0.99,0.14-2.04-0.28-2.97c-0.79,1.8,0,3.71-1.48,6.62l-5.51,6.25c-5.19,3.87-10.59,7.46-16.16,10.75
		c-1.69,1.4-3.46,2.68-5.32,3.84c-2.95,1.4-5.59,3.37-7.78,5.79c-1.11,0.97-1.67,1.07-2.5,2.46l12.36-4.03
		c2.12-0.59,4.29-1.01,6.48-1.25c2.01-0.46,3.97-1.08,5.88-1.84c2.17-0.8,3.95-1.16,5.97-1.86c2.02-0.7,3.52-1.32,5.74-2.22
		C-22702.46-4777.15-22705.66-4781.63-22701.54-4779.23z"/>
	<path id="路径_4678" class="st2" d="M-22383.62-4429.02l24.63-3.66l7.5,46.87l0.74,32.88l-5.14,17.18
		c-6,3.03-12.19,5.69-18.52,7.96c-5.23,1.39-49.97,9.27-49.97,9.27l-23.16,1.48l18.52-13.89l27.79-29.13l14.31-33.53l4.08-26.86
		C-22382.83-4420.45-22383.62-4428.7-22383.62-4429.02z"/>
	<path id="路径_4679" class="st3" d="M-22677.32-4339.83l12.69-0.42l-37.05-270.18c-1.07,0-3.66,1.57-5.84,1.98
		c-2.38,0.18-4.76,0.18-7.13,0L-22677.32-4339.83z"/>
	<path id="路径_4680" class="st2" d="M-22656.01-4469.68c-3.4,13.12-5.13,26.62-5.14,40.18c1.32,14.91,1.8,41.68,8.38,49.46
		s21.08,48.39,51.27,62.15c24.73,11.39,24.5,11.39,24.5,11.39s-4.95,1.72-5.47,1.97c-0.51,0.25-61.09,2.46-61.09,2.46l-44.04-5.93
		l-25.47-13.43l-4.31-12.46l5.37-13.43l14.49-47.43l4.31-18.8l1.8-6.59l7.25,31.87l4.4,46.11l1.21,3.66l12.22,1.21l2.04-3.8
		l-14.91-124.44l10.1-22.6l13.66,2.18l1.39,3.02C-22654.05-4482.94-22656.01-4469.22-22656.01-4469.68z"/>
	<path id="路径_4681" class="st4" d="M-22680.85-4490.06c2.58,1.02,5.22,1.87,7.9,2.54c-0.37,1.25-0.84,2.48-1.39,3.66
		c-0.51,1.21-1.02,2.36-1.44,3.61c-1.11,2.46-2.04,5-2.78,7.59c-1.39-5.71-2.15-11.55-2.27-17.42L-22680.85-4490.06z
		 M-22352.73-4338.68c7.32-16.99,0.51-57.75-1.98-80.58c-0.6-4.22-1.25-8.94-2.17-12.96c7.41-4.69,12.86-11.92,15.33-20.33
		c1.02-3.69,1.63-7.47,1.8-11.29v-4.95c-0.2-5.08-1.22-10.1-3.01-14.87c-2.66-7.21-6.77-13.8-12.09-19.35
		c-3.93-3.62-8.18-6.9-12.69-9.77c-3.61-2.41-7.24-4.61-10.93-7.04c-1.8-1.21-3.38-2.22-5.18-3.52c-2.73-1.73-5.37-3.6-7.9-5.61
		c-1.14-3.17-2.48-6.26-4.03-9.25c-4.12-7.6-10.34-13.86-17.92-18.02c-0.74-0.46-1.16,0-1.25-3.24v-9.26c0-1.85,0.28-2.41,0.28-4.22
		c0-3.61,1.02-12.41,1.48-16.53c0.64-2.42,0.79-4.93,0.46-7.41c-2.34-6.52-8.17-11.15-15.05-11.95c0.32-0.95,0.72-1.86,1.21-2.73
		c10.33-22.59,10.8-48.46,1.32-71.41l-2.6-5.55c-2.21-4.38-4.76-8.57-7.64-12.55c-0.32-0.46-0.51-0.6-0.88-1.07
		c-5.48-6.68-11.69-12.72-18.52-18.01c-6.4-4.4-13.05-8.43-19.91-12.08c-0.49-0.3-1.02-0.53-1.57-0.7
		c-6.39-2.54-27.23-10.09-32.42-8.93c0-4.61-2.63,0,0.98-12.55c0.74-2.92,4.61-18.9,5-20.89l0,0c4.66-1.72,7.99-5.87,8.66-10.8
		c0.35-2.12,0.12-4.29-0.66-6.3c-6.34-13.89-24.37-8.89-24.73,1.43c-2.88-2.52-6.84-3.43-10.54-2.41c-3.51,0.85-6.35,3.41-7.55,6.81
		c-2.73,7.08,2.23,9.58,1.48,12.68h-0.84c-0.32-1.32-2.37-3.1-3.24-4.31c-2.13-3.06-4.61-5-3.1-8.2c1.7-3.98,1.36-8.55-0.93-12.22
		l-1.07-1.43c-4.72-5.53-13.04-6.19-18.57-1.47c-0.24,0.2-0.47,0.41-0.7,0.64c-3.22,3.2-4.52,7.86-3.42,12.27
		c0.39,2.11,1.39,4.06,2.87,5.61c1.44,1.63,2.22,1.81,2.04,2.5l-5.88,12.27c-0.62-0.32-1.11-0.84-1.39-1.48
		c0-2.32,0.69-2.04,0.84-3.84c0.76-5.96-2.97-11.57-8.75-13.17c-3.11-0.49-6.3,0.15-8.98,1.8c-1.16,0.75-0.28,0.94-1.62,0.94
		c0-0.74-0.28-0.84-0.93-1.62c-0.39-0.53-0.83-1.03-1.32-1.48c-0.99-0.81-2.06-1.51-3.2-2.09c-6.59-3.08-14.43-0.23-17.51,6.36
		c-1.99,4.25-1.56,9.24,1.12,13.09c3.61,4.61,6.9,4.36,7.9,5.56c1.45,2.29,2.72,4.69,3.8,7.18l8.89,16.95
		c0.1,0.25,0.23,0.5,0.37,0.74c0.51,0.88,0,0.51,0.6,0.6c0.46,2.92-0.51,4.61,0.84,7.25c-6.99,2.92-13.73,6.42-20.14,10.47
		c-0.46,0.27-0.9,0.58-1.32,0.93c-8.51,5.63-16.29,12.28-23.16,19.82c-3.91,4.99-7.48,10.23-10.7,15.7
		c-3.54,6.22-6.38,12.8-8.48,19.63c-4.14,15.64-4.05,32.1,0.28,47.7c4.67,13.72,12.11,26.33,21.86,37.05
		c3.24,3.41,6.72,6.58,10.42,9.48c-4.85,4.02-8.53,9.27-10.65,15.2c-7.52,1.42-14.7,4.25-21.16,8.34c-1.67,1.01-1.16,1.2-3.33,0.97
		c-9.65-0.87-19.14-2.98-28.25-6.26l-3.61-1.48c-3.52-1.32-3.2-1.32-3.52-3.52l-0.84-5.05c-0.28-1.97-0.32-5.47-0.79-7.32
		c-0.28-1.16,0-2.32-0.55-3.39c-0.26-1.24-0.43-2.49-0.51-3.75c-0.32-2.6-0.55-5.09-0.84-7.25l-1.76-14.54
		c0-1.62-0.46-1.57-0.55-3.33c-0.55-3.68-0.89-7.39-1.02-11.11c3.62-5.76,4.18-12.93,1.48-19.17c-0.51-1.32-0.28-1.32,0.28-2.69
		c0.76-1.55,1.29-3.21,1.57-4.91c0.35-3.82-0.29-7.66-1.85-11.16c-2.36-5.14-2.04,0.46-1.32-9.68c0.06-1.24,0.21-2.48,0.46-3.7
		c0.41-2.97,0.28-7.83,0.97-10.79c0.7-2.97,0.37-7.97,1.16-11.26c0.32-1.48,0.69-5.41,0.84-7.25c0.28-3.95,1.11-9.68,1.57-14.17
		l1.44-14.82c0.2-3.53,0.62-7.06,1.25-10.54c0.07-1.34,0.07-2.69,0-4.03c0-1.32,0.69-1.57,1.11-2.87
		c2.83-8.75-3.89-12.78-3.33-15.37c0.61-4.46-0.48-9-3.06-12.69c-1.08-1.63-2.54-2.96-4.26-3.89c0.97-6.23-2.19-12.37-7.82-15.19
		c3.47-9.13-1.12-19.35-10.25-22.82c-0.1-0.04-0.19-0.07-0.29-0.11l-4.95-2.32c-1.67-0.83-3.47-1.25-5.23-2.04
		c-2.73-1.25-2.63-3.1-3.47-3.61c0-5.37,2.32-10.6-8.24-7.41c-0.88,0.28-4.61,1.94-5.27,2.31c-5.63,3.25-9.25,9.12-9.63,15.61v9.73
		c-2.65,1.64-4.83,3.93-6.34,6.66c-1.46,2.63-1.84,5.72-1.07,8.62c1.67,5.37,1.62,0.28-0.41,5.64c-0.25,0.54-0.41,1.12-0.46,1.71
		c-0.46,3.06-1.44,2.41-3.95,7.25c-2.48,4.52-2.25,10.06,0.6,14.36c-3.75,5.5-4.89,12.38-3.1,18.8c1.11,2.22,0.55,1.76,1.39,2.13
		l2.04,2.27l3.43,9.26v0.84c0.97,1.38,7.9,20,9.26,23.15l2.87,6.67l0.88,2.5c0.32,0.83,0.51,1.38,0.88,2.22
		c0.97,2.22,0,1.53,1.76,4.61c0.08,0.19,0.18,0.37,0.28,0.55c1.25,2.27,9.81,23.85,10.97,26.91l0.51,1.16
		c3.33,6.34,1.02,7.64,1.53,12.83c0.14,0.85,0.34,1.68,0.6,2.5c0.4,2.5,1.4,4.87,2.92,6.9c1.98,2.83,1.32,0.83,1.25,4.61
		c0,13.89,7.64,15,8.15,17.97l4.61,33.95c0.23,2.41,1.67,9.59,1.67,11.53c-6.48,0.55-10.93,7.97-12.52,13.61
		c-5.14,17.97,4.4,34.55,18.11,44.79c1.07,0.79,2.96,1.71,3.29,3.19c2.08,14.96,4.61,30.75,6.53,45.71
		c0.46,3.89,4.21,26.4,3.61,28.53s-2.41,8.61-3.7,13.89c-1.02,4.61-1.32,8.52-2.37,13.05c-3.06,14.31-10.33,45.45-16.99,55.25
		c-1.6,2.43-2.58,5.21-2.87,8.1c-0.47,6.14,1.8,12.17,6.21,16.47c7.33,6.91,16.38,11.71,26.21,13.89
		c21.53,6.07,56.59,8.66,112.12,2.87c18.84,5.73,38.61,7.73,58.21,5.88c23.54-1.34,46.58-7.37,67.75-17.74
		c0.93,0,0.97,0.55,2.73,0.46c0.23,0,85.54-3.7,94.34-24.03L-22352.73-4338.68z M-22441.84-4319.5
		c31.33-18.58,52.82-50.09,58.67-86.04l0,0c1.44-6.83,2.06-13.81,1.85-20.8c6.75,0.24,13.47-0.92,19.76-3.39
		c3.7,23.53,11.02,74.1,4.61,89.2c-6.41,15.1-65.95,19.76-84.71,21.02L-22441.84-4319.5z M-22695.72-4399.16
		c-3.1,14.41-10.61,46.63-17.79,57.23c-1.16,1.75-1.88,3.75-2.08,5.84c-0.28,4.78,1.53,9.44,4.96,12.78
		c6.75,6.27,15.04,10.62,24.03,12.6c19.76,5.61,51.38,8.1,100.59,3.66c-59.6-25.2-88.36-97.48-74.98-158.38l4.61-17.69l-11.58-2.87
		c-0.84,1.11-6.02,15.05-6.9,17.36c-4.61,12.46-2.87,6.4-1.62,19.87c0.69,7.13,1.76,14.73,2.78,21.73
		c4.03,28.07,7.55,56.36,11.44,84.48c0.37,1.39,0.74,5.41-7.25,6.81c-4.13,1.15-8.56-0.06-11.53-3.16l-0.37-0.51v-0.6
		c-0.46-3.47-9.26-74.84-10.84-76.32c-0.8,5.79-1.93,11.52-3.38,17.18L-22695.72-4399.16z M-22570.4-4306.53
		c17.08,4.64,34.85,6.2,52.47,4.61c103.96-7.96,125.04-79.01,129.1-99.46c0.51-2.45,0.88-4.95,1.32-7.46
		c1.22-5.78,1.61-11.71,1.16-17.6c-4.08-1.8-13.25,0-27.79-11.16c-6.93-5.84-13.15-12.47-18.52-19.76
		c-2.78,0.42-5.37,1.32-8.48,1.67c-8.64,0.92-17.37-0.24-25.47-3.39c-9.2-2.9-17.02-9.06-22-17.32c-5.46-9.95-7.56-21.41-5.97-32.65
		c0.64-5.41,1.95-10.72,3.89-15.81c1.8-4.51,4.12-8.8,6.9-12.78c-6.83-2.96-12.8-7.61-17.32-13.52c-2.78,0.38-7.18,1.85-10.24,2.5
		c-7.43,1.52-14.97,2.46-22.55,2.83c-4.21,0.32-3.15,0.6-8.1,4.17c-22.39,15.98-48.48,25.2-76.83,18.06
		c-6.21-1.63-12.19-4.04-17.79-7.18c-5.27-2.82-10.12-6.37-14.4-10.54c-6.98-0.28-13.92-1.27-20.7-2.97
		c-5.47-1.25-17.09-5.51-17.46-5.61c0,3.66,4.17,34.82,5,40.61l1.48,11.95c0,1.16,0,0.66,0.46,1.24c8.33,3.36,16.92,6.02,25.69,7.96
		c2.08,0.51,5.27,0.55,5.88,2.6c-0.19,2.24-0.75,4.43-1.67,6.48c-4.39,14.04-6.86,28.6-7.32,43.3
		c-1.21,51.92,30.75,107.07,79.56,125.97c2.5,0.97,7.04,2.46,9.68,3.24L-22570.4-4306.53z M-22685.71-4405.55L-22685.71-4405.55
		l8.75,64.09c1.94,1.3,4.35,1.68,6.59,1.02c1.17-0.31,2.36-0.51,3.56-0.59v-0.7c-12.41-89.47-23.15-178.99-34.73-268.6
		c-1.02,0-3.65,1.57-5.84,1.97c-2.37,0.21-4.76,0.21-7.13,0l29.04,202.8L-22685.71-4405.55z M-22712.66-4557.82l1.32,5.83
		c0.28,2.14,0.46,4.22,0.74,6.25c0.84,6.49,5.14,32.83,5.27,36.82c-3.5-2.64-6.62-5.76-9.26-9.27c-11.9-15.47-8.43-37.05,2.13-39.59
		L-22712.66-4557.82z M-22598.96-4526.15c-13.7,0.12-27.15-3.73-38.72-11.07c-3.33-1.99-6.43-4.34-9.26-7
		c6.28-3.7,13.19-6.19,20.38-7.36c1.07-0.69,1.53-3.47,2.13-4.91c2.1-4.62,5.45-8.55,9.68-11.35c1.16,0.37,5.61,3.47,6.95,4.26
		c2.59,1.52,4.61,2.69,7.46,4.07c5.27,2.66,10.73,4.9,16.35,6.72c12.53,4.16,25.61,6.47,38.81,6.86
		c-7.12,5.39-14.9,9.86-23.15,13.29c-9.65,4.08-19.99,6.28-30.47,6.47L-22598.96-4526.15z M-22413.07-4550.18
		c5.85,3.89,10.55,9.29,13.62,15.61c-4.15-3.01-7.84-6.6-10.97-10.65C-22411.46-4546.79-22412.34-4548.45-22413.07-4550.18
		L-22413.07-4550.18z M-22496.2-4553.05c6.43-2,12.63-4.64,18.52-7.91c2.92-1.49,5.74-3.06,8.48-4.61c2.67-1.9,5.44-3.66,8.29-5.27
		c0.12,3.58,0.44,7.15,0.97,10.7c0.28,2.08,1.76,8.15,1.71,9.49c-8.26,0.1-16.15,3.42-22,9.26c-6.27-2.34-11.81-6.28-16.07-11.44
		L-22496.2-4553.05z M-22427.93-4459.14c1.02-0.93,5.14-2.63,6.59-3.52c3.06-1.8,13.29-9.26,13.29-12.23
		c0.04-1.3-0.98-2.39-2.28-2.43c-0.13,0-0.27,0-0.41,0.02c-1.25,0-4.4,3.85-5.38,4.61c-5.76,5.26-12.73,9.02-20.29,10.93
		c-11.58,2.48-23.67,0.85-34.18-4.61c-30.42-15.33-20.89-63.96-1.48-75.81c2.4-1.26,4.96-2.21,7.6-2.83
		c9.99-2.47,20.55-1.06,29.55,3.95c1.07,0.55,2.41,1.53,3.38,1.97c1.31,0.51,2.79-0.14,3.31-1.46c0.46-1.19-0.02-2.53-1.13-3.15
		c-7.1-4.48-15.23-7.07-23.62-7.5c-2.11-8.37-3.06-16.98-2.83-25.61c0.04-7.54,2.94-14.78,8.11-20.27
		c5.39-5.56,13.15-8.14,20.79-6.91c3.54,0.64,6.65,2.76,8.52,5.84c1.67,2.87,0,8.89,0,12.51c-1.15,8.98-1.54,18.04-1.16,27.09
		c0.45,9.09,4.82,17.54,12,23.15c4.61,3.75,6.48,5.47,11.9,9.26c5.42,3.79,11.11,7.82,17.04,11.63
		c12.55,8.1,22.69,13.61,29.22,27.41c7,14.82,6.34,33.35-3.33,44.37s-25.69,13.34-43.53,8.42c-6.64-2.17-12.73-5.77-17.83-10.54
		c-2.78-2.46-4.61-4.61-7.13-7.18c-2.52-2.57-4.61-5.88-6.59-7.69L-22427.93-4459.14z M-22722.75-4627.57
		c6.1,0.74,12.29,0.25,18.2-1.43c1.07-0.37,3.89-1.8,4.61-1.9c1.64,3.81,1.64,8.14,0,11.95c-2.11,2.94-5.22,4.99-8.75,5.78
		c-3.99,0.78-8.12-0.21-11.3-2.73c-2.63-3.27-3.69-7.54-2.87-11.67H-22722.75z M-22727.36-4646.09c5.07,0.45,10.18,0.37,15.24-0.23
		c3.98-0.8,7.77-2.37,11.16-4.61c2.68,3.7,3.26,8.52,1.53,12.74c-3.75,7.08-23.15,6.94-25.33,4.61c-2.7-3.69-3.64-8.38-2.6-12.82
		L-22727.36-4646.09z M-22531.08-4737.42c28.14-1.93,55.94,7.1,77.57,25.2c30.14,25.02,38.4,67.86,19.73,102.3
		c-0.88,1.67-2.59,1.39-4.61,1.97c-1.59,0.47-3.13,1.07-4.61,1.8c-8.8,4.16-15.07,12.29-16.86,21.85c-1.48,7.04,0.46,5.56-3.89,8.75
		c-22.73,16.57-50.26,25.25-78.38,24.73c-14.94-0.17-29.75-2.84-43.81-7.91c-12-4.23-23.13-10.61-32.83-18.84
		c-14.77-12.44-25.05-29.37-29.27-48.21l-1.57-11.35c-0.33-4.11-0.33-8.25,0-12.36c3.23-25.94,17.43-49.24,38.99-64
		c10.46-7.59,22.1-13.4,34.46-17.17c3.38-0.94,7.04-1.72,10.42-2.46c3.38-0.74,7.46-1.2,10.97-1.97c7.76-1.21,15.59-1.97,23.44-2.27
		L-22531.08-4737.42z M-22694.78-4728.16l-3.01,27.14l-1.21,12.41c0,2.55-0.55,5.09-0.79,7.59c-0.06,2.41-0.39,4.8-0.97,7.13
		c0.15,2.4-0.02,4.81-0.51,7.17c0,3.16-0.6,6.54-0.88,9.59c0,1.97-0.74,1.97-2.13,2.87c-1.04,0.76-2.22,1.31-3.47,1.62
		c-1.66,1.05-3.59,1.6-5.56,1.58l-0.66,0.28h-0.28c-2.22,0.31-4.47,0.43-6.71,0.37c-6.39-0.28-7.78,0.38-8.98-5.37
		c-1.6-3.13-2.9-6.4-3.89-9.77c-1-1.7-1.76-3.52-2.27-5.42c-1.19-2.14-2.08-4.43-2.63-6.81c-1.98-3.74-3.61-7.66-4.86-11.71
		c-1.69-3.43-3.09-6.99-4.17-10.65c-0.66-0.66-0.55-0.69-0.93-1.71l-0.66-1.63c-0.51-1.32-0.93-2.13-1.32-3.43
		c-1.07-2.04-1.9-4.2-2.46-6.44c-1.55-2.96-2.82-6.06-3.8-9.26l-1.67-4.35l2.27,0.47c4.91,0.41,9.26,1.32,14.59,1.43
		c5.11,0.23,10.22-0.03,15.28-0.79c3.15,0.37,11.3-2.41,13.89-2.08l0.79-0.41h1.16l1.97-0.51c1.67-0.42,2.78-0.84,4.31-1.11
		c3.28-1.36,6.67-2.43,10.14-3.19l-0.55,5.23L-22694.78-4728.16z M-22572.15-4762.41c-3.42-1.49-6.48-3.69-8.98-6.44
		c-3.15-3.15-6.44-5.37-4.61-9.82c1.44-3.16,5.17-4.56,8.34-3.13c0.63,0.29,1.21,0.68,1.71,1.15c1.56,1.49,2.27,3.66,1.9,5.79
		c-0.46,2.5-2.08,2.92-3.1,4.61c1.26,2.79,2.8,5.44,4.61,7.91L-22572.15-4762.41z M-22529.17-4776.3c-1.8-1.48-2.92-1.32-4.08-3.57
		c-1.47-3.18-0.08-6.95,3.1-8.42c2.28-1.05,4.97-0.66,6.86,1.01c2.26,2.18,2.66,5.64,0.97,8.28c-0.37,1.57,0.42,1.32-0.66,3.02
		c-1.75,3.13-3.85,6.05-6.25,8.71l-2.13-1.11L-22529.17-4776.3z M-22556.03-4783.99L-22556.03-4783.99l-2.41-1.07
		c-3.99-2.08-5.54-7-3.46-10.99c2.08-3.99,7-5.54,10.99-3.46c3.99,2.08,5.54,7,3.46,10.99c-0.54,1.04-1.31,1.96-2.24,2.68
		c-0.1,2.07,0.73,4.07,2.27,5.47c4.08,6.85,9.6,12.74,16.16,17.27c2.28,1.51,5.35,0.89,6.87-1.38c0.06-0.09,0.12-0.19,0.17-0.28
		c2.96-3.96,5.68-8.08,8.15-12.36c1.52-1.99,2.77-4.17,3.7-6.49c-1.23-1.4-1.95-3.18-2.04-5.05c-0.08-1.91,0.56-3.78,1.8-5.23
		c3.08-3.28,8.24-3.44,11.53-0.36c2.12,1.99,3.02,4.95,2.37,7.77c-1.39,5.42-6.95,5.42-7.69,6.07c-1.28,2.96-2.18,6.07-2.69,9.26
		l-4.91,18.53c-0.41,1.53-0.79,3.01-1.16,4.61c-0.66,2.92,0.37,2.97,0.66,5.37c-12.38-0.56-24.79,0.06-37.05,1.85
		c-2.73,0.46-5.74,0.66-8.56,1.32c-2.82,0.66-5.23,1.11-7.9,1.57s-13.89,3.75-15.1,3.66c-0.6-2.32,0.6-3.75-0.32-5.88l-6.8-13.11
		c-1.21-2.22-8.48-16.58-9.26-17.04c-3.58,0.07-6.8-2.14-8.01-5.51c-1.44-4.26,0.86-8.89,5.12-10.32c2.79-0.94,5.86-0.3,8.05,1.67
		c2.72,2.7,3.34,6.86,1.53,10.23c0.79,0.93,1.57,1.53,2.41,2.63c1.41,1.94,3.08,3.69,4.95,5.19c3.2,3.15,11.11,10.74,15.7,8.71
		c3.38-1.53,12.27-20.88,13.62-26.39L-22556.03-4783.99z M-22735.19-4821.41c0,13.89,15.98,11.16,22.83,19.82
		c5.51,6.95-0.93,14.59,2.08,17.05c0.88,0.74,2.31,1.24,3.33,1.97c5.97,4.61,3.15,8.52,3.7,11.44c0.55,2.92,7.82,2.5,7.41,13.9
		c0,5.56,0.74,3.95,2.69,7.83c1.57,2.64,1.57,5.92,0,8.56c-1.62,2.69-11.67,5.33-15.05,6.3c-5.69,1.63-11.5,2.82-17.37,3.57
		c-7.96,0.88-31.91,2.41-37.05-4.61c-3.7-5-1.02-11.48,1.48-16.25c2.5-4.77,0-3.95-1.07-7.73c-0.64-2.88-0.07-5.89,1.57-8.34
		c1.48-2.46,3.38-3.43,3.75-6.9s4.22-4.4,2.32-7.32c-0.69-1.11-1.62-1.52-1.8-3.61c-0.15-1.53,0.24-3.07,1.11-4.35
		c1.49-2.06,3.36-3.8,5.51-5.14c3.85-2.45,2.32-3.01,1.8-7.59c-0.41-3.1-0.15-6.26,0.74-9.26c1.79-5.22,6.49-8.88,11.98-9.34
		L-22735.19-4821.41z"/>
	<path id="路径_4682" class="st5" d="M-22427.95-4459.08c1.8,1.76,3.75,4.61,6.59,7.64c2.83,3.03,4.35,4.61,7.13,7.17
		c5.1,4.77,11.19,8.37,17.83,10.54c17.88,4.91,33.99,2.41,43.53-8.43s10.33-29.54,3.33-44.36c-6.53-13.89-16.67-19.31-29.27-27.46
		c-5.88-3.79-11.62-7.69-16.99-11.63c-5.37-3.94-7.24-5.65-11.9-9.26c-7.18-5.61-11.57-14.06-12.04-23.16
		c-0.34-9.05,0.06-18.11,1.21-27.09c0.37-3.61,1.8-9.63,0-12.51c-1.86-3.09-4.97-5.22-8.52-5.84c-7.63-1.25-15.4,1.31-20.79,6.85
		c-5.17,5.49-8.05,12.75-8.06,20.29c-0.28,8.62,0.66,17.24,2.78,25.6c8.39,0.43,16.53,3.04,23.62,7.55
		c1.32,0.51,1.97,1.99,1.46,3.31s-1.99,1.97-3.31,1.46c-0.11-0.05-0.22-0.1-0.33-0.15c-0.97-0.42-2.32-1.43-3.38-1.98
		c-9-4.99-19.56-6.37-29.55-3.88c-2.64,0.62-5.19,1.57-7.59,2.83c-19.4,11.85-28.94,60.48,1.48,75.75
		c10.49,5.52,22.6,7.15,34.18,4.61c7.55-1.88,14.51-5.62,20.24-10.87c1.02-0.88,4.17-4.61,5.42-4.61c1.32-0.16,2.51,0.78,2.67,2.1
		c0.01,0.1,0.02,0.21,0.02,0.31c0,2.97-10.24,10.46-13.29,12.27C-22423.78-4461.38-22425.96-4460.38-22427.95-4459.08z"/>
	<path id="路径_4683" class="st2" d="M-22598.97-4526.09c10.48-0.2,20.82-2.4,30.47-6.48c8.31-3.45,16.17-7.92,23.38-13.3
		c-13.21-0.37-26.28-2.7-38.81-6.9c-5.62-1.81-11.08-4.06-16.35-6.73c-2.73-1.38-4.91-2.55-7.46-4.02
		c-1.32-0.84-5.79-3.89-6.95-4.31c-4.24,2.8-7.6,6.75-9.68,11.39c-0.6,1.39-1.07,4.22-2.13,4.91c-7.2,1.12-14.12,3.62-20.37,7.37
		c2.83,2.64,5.94,4.97,9.26,6.95C-22626.06-4529.84-22612.65-4525.98-22598.97-4526.09z"/>
	<path id="路径_4684" class="st6" d="M-22542.14-4702.91c-2.63,1.43-3.29,5.37-4.26,8.71c-0.97,3.34-1.97,6.81-2.92,10.19
		c-0.94,3.38-1.97,6.72-2.82,10.1c-0.85,3.38-2.32,6.53-3.1,10.09c-6.62,28.82,32.65,31.73,39.22,11.26
		c1.75-6.98,0.03-14.37-4.61-19.87l-9.26-16.72c-1.48-2.69-3.33-5.84-4.86-8.38
		C-22536.29-4700.08-22538.81-4704.81-22542.14-4702.91z"/>
	<path id="路径_4685" class="st7" d="M-22709.24-4669.38c-5.23-1.59-10.31-3.64-15.19-6.11c1.89-2.24,3.93-4.34,6.11-6.3
		c1.9-1.97,4.26-4.91,6.21-6.48l10.84,4.07c0.79,0.42,0.37,0,0.69,0.46c-1.04,2.64-2.36,5.16-3.95,7.5
		c-1.62,2.55-3.52,4.61-4.61,6.86H-22709.24z M-22740.36-4685.13c1.99,1.74,4.15,3.29,6.44,4.61c6.95,4.35,4.26,3.84,12.46-3.95
		c2.01-1.73,3.79-3.72,5.27-5.93c-3.71-1.07-8.66-4.61-12.18-6.03c0,0-11.58,10.74-11.99,11.26L-22740.36-4685.13z
		 M-22713.22-4693.46c-4.23-1.73-8.33-3.76-12.27-6.07c1.42-1.88,2.96-3.68,4.61-5.37c1.43-1.94,2.97-3.8,4.61-5.56
		c2.27,0.79,5.88,2.77,8.75,3.89c1.1,0.32,2.13,0.82,3.06,1.48c-2.55,4.13-5.47,8.01-8.71,11.63L-22713.22-4693.46z
		 M-22729.25-4701.8c3.32-3.23,6.33-6.75,8.98-10.54c-0.46-0.52-11.3-7.13-11.76-7.25l-8.48,10.33c3.48,2.88,7.25,5.4,11.25,7.51
		L-22729.25-4701.8z M-22743.83-4711.81c-3.37-2.25-6.47-4.88-9.26-7.82c0.46-1.43,3.06-3.8,3.95-5.51c2.52-0.04,5.03,0.2,7.5,0.69
		c2.92,1.58,0.55,0.32,3.05,1.07c1.03,0.25,1.98,0.78,2.73,1.52c-2.41,3.61-5.16,6.98-8.22,10.05H-22743.83z M-22702.15-4708.99
		c2.57-4.5,4.56-9.31,5.93-14.31l-10.7-2.87c-1.88,4.27-4.19,8.34-6.9,12.14c3.68,2.13,7.6,3.81,11.67,5.01V-4708.99z
		 M-22712.34-4728.02h1.32c0.41,1.07-0.6,2.23-1.16,3.25c-0.56,1.02-1.11,2.04-1.71,3.1c-1.01,2.01-2.25,3.89-3.7,5.61
		c-4.13-1.99-8.07-4.36-11.76-7.08l0.55-1.63l0,0c1.98,0,2.41,1.01,3.66-1.11h-1.25c-5.06,0.74-10.17,1-15.28,0.78
		c-5.27,0-9.72-1.06-14.59-1.48c0.46,0.42,0,0,0.66,0.47l2.08,0.38c-0.42,1.01-1.98,2.27-2.55,3.29l-0.79-0.23
		c0.97,3.2,2.24,6.3,3.79,9.26v-0.74c1.53,2.18,4.61,3.66,6.02,5.51l-2.55,2.82c-0.79-0.78,0.98,0.97-0.32-0.46l0,0l-0.6-0.51
		c0.36,1.16,0.8,2.29,1.32,3.38l0.66,1.62c0.37,1.07,0.28,1.11,0.93,1.71l-0.28-1.63c1.32-1.01,3.1-3.57,4.61-4.12l10.97,7.32
		c-1.45,1.94-3.14,3.69-5.04,5.19l-5.32,5.05c-0.41-1.62-0.23-0.74-0.79-1.11c1.25,4.03,2.88,7.94,4.86,11.67v-0.74
		c0.93,0.66,2.04,1.38,3.24,2.14c1.22,0.58,2.37,1.29,3.43,2.13l-3.01,2.77c-0.97,0.93,0,0.66-1.11,0.55
		c0.5,1.89,1.27,3.7,2.27,5.37c0-1.07,0-0.28-0.28-1.53c2.17-1.58,4.23-3.32,6.16-5.18l15.42,6.67c-3.57,4.45-7.61,8.5-12.04,12.09
		l-5.38-2.27c1.21,5.78,2.6,5.09,8.98,5.41c2.24,0.05,4.49-0.07,6.71-0.38h0.28l0.66-0.32c-1.25,0-4.61,0.6-6.34-1.01l11.35-12
		c1.1,0.2,2.17,0.51,3.2,0.93l1.48,0.51l0.84,0.28l0.55,0.33l0,0c-0.69,3.79,0,2.69-2.18,5.23c-1.21,1.53-2.55,2.6-3.56,4.08
		c1.25-0.33,2.43-0.89,3.47-1.67c1.32-0.88,1.97-0.83,2.13-2.87c0.28-3.01,0.74-6.44,0.88-9.54c-0.7,0.55-0.46-0.69-0.55,0.51
		c-1.02-0.6-2.37-0.69-3.56-1.32c0.46-1.63,3.61-4.61,4.61-7.32v0.97c0.59-2.33,0.91-4.73,0.97-7.13c0-2.5,0.66-5.05,0.79-7.59
		c-0.55,0.79,0-0.88-0.6,0.97l-9.68-3.66c1.28-2.12,2.75-4.12,4.4-5.98c1.25-1.71,2.69-4.08,4.17-6.2c1,0.01,1.98,0.3,2.83,0.83
		v1.58l3.01-27.09l-0.66,1.06l-9.26-2.63l0.28-0.51c-1.46,0.31-2.89,0.7-4.31,1.16l-1.97,0.46h-1.16L-22712.34-4728.02z"/>
	<path id="路径_4686" class="st8" d="M-22574.28-4668.03c0.54-1.16,1.31-2.2,2.27-3.06c1.11-1.16,1.62-1.76,2.5-2.83
		c-0.82-3.41-2.29-6.63-4.31-9.49c3.01,0.6,5.56,5.09,8.05,5.32c1.71-2.73,3.52-2.83,0.42-5.56c-1.69-1.63-3.59-3.03-5.65-4.17
		c-4.75-2.73-10.58-2.82-15.42-0.23c-3.96,2.73-6.77,6.82-7.9,11.49c-1.33,5.64-1.22,11.53,0.32,17.13
		c2.08,7.59,10.24,21.86,20.29,16.07c7.9-4.61,7.25-18.94,6.11-21.49C-22568.16-4666.04-22572.74-4667.25-22574.28-4668.03z"/>
	<path id="路径_4687" class="st5" d="M-22512.32-4604.5c-0.84,9.26-0.93,26.03-14.77,25.83c-5.25-0.24-9.91-3.43-12.04-8.23
		c-2.48-4.65-4.43-9.56-5.84-14.64c-1.56-4.64-2.84-9.37-3.84-14.17c-0.51-2.13-1.25-5.27-1.57-7.51c-0.32-2.24,0.32-1.32,6.21-2.18
		l15.47-1.9c2.27-0.46,5.56-0.83,7.82-1.16l4.03-0.46c1.8-0.23,3.24-0.97,3.8-0.28
		C-22512.19-4620.99-22511.95-4612.74-22512.32-4604.5L-22512.32-4604.5z M-22513.44-4634.51c-5.04,1.06-18.52,2.35-24.54,3.15
		c-3.89,0.51-8.2,1.32-11.86,1.67c-6.2,0.6-6.81,0.79-5.6,7.13c2.27,12.27,7.32,32.7,13.89,41.36c4.25,6.14,11.85,9.03,19.1,7.25
		c6.68-2.06,11.68-7.63,13.02-14.49c2.4-12.75,2.97-25.76,1.71-38.67C-22508.15-4632.19-22507.34-4635.9-22513.44-4634.51
		L-22513.44-4634.51z"/>
	<path id="路径_4688" class="st9" d="M-22544.98-4601.54c1.4,5.08,3.36,9.99,5.84,14.64c2.13,4.81,6.79,8,12.04,8.24
		c13.89,0,13.89-16.67,14.78-25.85c-2.22-0.87-3.66-2.13-7.9-3.75c-6.2-2.26-13.08-1.72-18.85,1.48
		C-22541.04-4605.75-22544.84-4603.61-22544.98-4601.54z"/>
	<path id="路径_4689" class="st2" d="M-22544.97-4601.54c0-2.07,3.95-4.21,5.88-5.22c5.77-3.2,12.65-3.74,18.85-1.48
		c4.26,1.63,5.7,2.87,7.9,3.75c0.38-8.24,0.13-16.49-0.74-24.69c-0.55-0.69-1.97,0-3.8,0.28l-4.03,0.47
		c-2.27,0.37-5.56,0.66-7.83,1.15l-15.46,1.9c-5.88,0.88-6.53,0-6.21,2.19s1.07,5.37,1.57,7.5c1,4.79,2.28,9.53,3.85,14.17
		L-22544.97-4601.54z"/>
	<path id="路径_4690" class="st2" d="M-22496.21-4553c4.27,5.14,9.81,9.07,16.07,11.39c5.87-5.8,13.75-9.12,22-9.26
		c0-1.32-1.44-7.36-1.71-9.49c-0.54-3.54-0.86-7.12-0.97-10.7c-0.97,0.28-6.95,4.61-8.29,5.33c-2.73,1.7-5.56,3.24-8.48,4.61
		C-22483.52-4557.82-22489.75-4555.1-22496.21-4553L-22496.21-4553z"/>
	<path id="路径_4691" class="st8" d="M-22502.83-4669.15l20.56-5.65c2.41-0.66,5.38-0.79,5.18-3.57
		c-0.32-4.16-7.5-0.97-12.64,0.28c-4.61,1.07-9.68,2.92-13.89,3.66c0.66-1.57,12.32-15.6,14.45-18.52c2.13-2.92-0.88-6.59-3.75-3.19
		c-2.87,3.39-6.39,8.15-9.68,12.27l-9.78,12.36c-2.17,3.56,2.08,4.61,4.31,5.65l23.15,9.77c1.19,0.73,2.56,1.1,3.95,1.07
		c1.27-0.42,1.96-1.78,1.54-3.04c-0.08-0.23-0.19-0.46-0.34-0.66c-2.3-1.63-4.85-2.89-7.55-3.7l-7.73-3.24
		c-2.7-0.95-5.31-2.11-7.82-3.48L-22502.83-4669.15z"/>
	<path id="路径_4692" class="st10" d="M-22605.97-4638.57c-15.7,0-26.63,9.95-16.86,14.82c8.48,4.26,25.19,1.67,30.38-4.61
		c2.83-3.43,0.74-6.44-2.46-8.06C-22598.38-4637.98-22602.16-4638.72-22605.97-4638.57z"/>
	<path id="路径_4693" class="st10" d="M-22464.67-4655.17c-24.31,3.33-21.58,18.99,1.62,16.39c5.93-0.66,16.3-3.95,16.58-9.59
		C-22446.19-4654.74-22458.79-4655.95-22464.67-4655.17z"/>
	<path id="路径_4694" class="st5" d="M-22712.66-4557.81c-10.54,2.6-13.89,24.13-2.17,39.65c2.64,3.5,5.76,6.62,9.26,9.26
		c0-3.95-4.61-30.33-5.27-36.77c-0.28-2.04-0.46-4.17-0.74-6.26L-22712.66-4557.81z"/>
	<path id="路径_4695" class="st3" d="M-22727.38-4646.09c-1.05,4.45-0.1,9.14,2.59,12.83c1.98,2.13,21.58,2.27,25.33-4.61
		c1.73-4.21,1.15-9.01-1.53-12.69c-3.37,2.26-7.17,3.83-11.16,4.61C-22717.21-4645.5-22722.32-4645.55-22727.38-4646.09z"/>
	<path id="路径_4696" class="st3" d="M-22722.76-4627.51c-0.85,4.11,0.21,8.38,2.87,11.63c3.16,2.57,7.31,3.59,11.3,2.78
		c3.53-0.79,6.64-2.85,8.75-5.79c1.64-3.83,1.64-8.17,0-11.99c-1.58,0.51-3.12,1.15-4.61,1.9c-5.95,1.62-12.15,2.13-18.29,1.48
		L-22722.76-4627.51z"/>
	<path id="路径_4697" class="st3" d="M-22709.23-4669.38c1.16-2.08,3.06-4.31,4.61-6.86c1.59-2.35,2.91-4.87,3.95-7.51
		c-0.32-0.28,0,0-0.7-0.46l-10.84-4.08c-1.98,1.57-4.31,4.61-6.21,6.48c-2.18,1.96-4.22,4.06-6.11,6.3
		C-22719.62-4673.02-22714.5-4670.96-22709.23-4669.38z"/>
	<path id="路径_4698" class="st3" d="M-22740.35-4684.9c1.99,1.74,4.14,3.29,6.44,4.61c6.95,4.35,4.26,3.84,12.46-3.95
		c2.01-1.73,3.79-3.72,5.27-5.93c-3.71-1.07-8.66-4.61-12.18-6.02C-22728.54-4696.33-22739.93-4685.63-22740.35-4684.9z"/>
	<path id="路径_4699" class="st3" d="M-22733.69-4665.72c0.98,3.37,2.28,6.65,3.89,9.77l5.37,2.27
		c4.43-3.59,8.47-7.64,12.04-12.09l-15.42-6.67c-1.93,1.87-3.99,3.6-6.16,5.19C-22733.6-4666-22733.74-4666.78-22733.69-4665.72z"/>
	<path id="路径_4700" class="st3" d="M-22713.22-4693.45c3.24-3.61,6.16-7.5,8.71-11.63c-0.93-0.66-1.96-1.15-3.06-1.48
		c-2.87-1.11-6.48-3.1-8.75-3.89c-1.65,1.75-3.19,3.61-4.61,5.56c-1.64,1.7-3.18,3.49-4.61,5.37c3.97,2.31,8.1,4.34,12.36,6.07
		H-22713.22z"/>
	<path id="路径_4701" class="st3" d="M-22729.24-4701.8c3.32-3.22,6.33-6.75,8.98-10.54c-0.46-0.51-11.3-7.13-11.76-7.25
		l-8.48,10.32c3.49,2.88,7.26,5.39,11.26,7.5V-4701.8z"/>
	<path id="路径_4702" class="st3" d="M-22702.28-4709.02c2.57-4.5,4.56-9.3,5.93-14.31l-10.7-2.87c-1.88,4.27-4.2,8.33-6.9,12.13
		C-22710.28-4711.92-22706.36-4710.23-22702.28-4709.02L-22702.28-4709.02z"/>
	<path id="路径_4703" class="st3" d="M-22747.63-4700.33c1.1,3.67,2.5,7.25,4.17,10.7c0.55,0.37,0.37-0.51,0.79,1.11l5.33-5.05
		c1.9-1.5,3.6-3.25,5.04-5.19l-10.97-7.32c-1.53,0.55-3.33,3.1-4.61,4.12L-22747.63-4700.33z"/>
	<path id="路径_4704" class="st3" d="M-22743.83-4711.84c3.05-3.08,5.79-6.45,8.2-10.05c-0.74-0.77-1.69-1.3-2.73-1.53
		c-2.5-0.73,0,0.52-3.06-1.06c-2.47-0.49-4.98-0.71-7.5-0.66c-0.88,1.71-3.47,4.07-3.95,5.51c2.71,2.93,5.74,5.56,9.03,7.83
		L-22743.83-4711.84z"/>
	<path id="路径_4705" class="st3" d="M-22726.27-4725.97h1.25c-1.25,2.09-1.67,0.97-3.66,1.11l0,0l-0.55,1.62
		c3.69,2.72,7.63,5.1,11.76,7.09c1.45-1.72,2.69-3.6,3.7-5.61c0.61-1.07,1.11-1.94,1.71-3.1c0.6-1.16,1.57-2.17,1.16-3.24h-1.32
		C-22714.97-4728.38-22723.12-4725.6-22726.27-4725.97z"/>
	<path id="路径_4706" class="st3" d="M-22713.16-4651.27c1.96,0.06,3.9-0.47,5.56-1.53c1.02-1.48,2.37-2.54,3.56-4.08
		c1.97-2.55,1.48-1.43,2.17-5.23l0,0l-0.55-0.32l-0.88-0.28l-1.44-0.51c-1.03-0.42-2.1-0.73-3.19-0.93l-11.58,11.67
		C-22717.84-4650.66-22714.41-4651.32-22713.16-4651.27z"/>
	<path id="路径_4707" class="st3" d="M-22698.87-4688.79l1.21-12.46v-1.57c-0.85-0.54-1.83-0.82-2.83-0.83
		c-1.48,2.14-2.92,4.61-4.17,6.2c-1.66,1.84-3.13,3.84-4.4,5.98l9.68,3.66C-22699.05-4689.52-22699.61-4687.99-22698.87-4688.79z"/>
	<path id="路径_4708" class="st11" d="M-22532.88-4569.11c2.98,4.45,8.85,5.91,13.57,3.38c1.44-0.83,0.93-0.74,1.98-1.75
		c0.32-0.33,0.69-0.56,1.02-0.93c0.93-1.09,1.65-2.35,2.13-3.7c-2.36,2.05-5.25,3.4-8.34,3.89
		C-22526-4567.99-22529.5-4568.29-22532.88-4569.11z"/>
	<path id="路径_4709" class="st2" d="M-22413.08-4550.12c0.74,1.72,1.62,3.38,2.63,4.95c3.14,4.05,6.84,7.63,10.97,10.65
		C-22402.52-4540.85-22407.22-4546.24-22413.08-4550.12z"/>
	<path id="路径_4710" class="st3" d="M-22704.23-4730.42l-0.28,0.51l9.26,2.63l0.66-1.07l0.55-5.27
		C-22697.51-4732.82-22700.92-4731.75-22704.23-4730.42L-22704.23-4730.42z"/>
	<path id="路径_4711" class="st3" d="M-22738.59-4677.95c0.57,2.39,1.45,4.7,2.63,6.86c0.97,0,0,0.37,1.11-0.56l3.01-2.78
		c-1.06-0.84-2.21-1.55-3.42-2.13c-1.25-0.74-2.32-1.48-3.24-2.13L-22738.59-4677.95z"/>
	<path id="路径_4712" class="st12" d="M-22694.41-4405.5h4.08c-0.26-3.66-0.92-7.28-1.98-10.8
		C-22692.46-4412.86-22693.99-4409.04-22694.41-4405.5z"/>
	<path id="路径_4713" class="st3" d="M-22701.13-4666.87c0.48-2.36,0.65-4.77,0.51-7.17v-0.97c-1.38,2.53-2.92,4.97-4.61,7.31
		c1.21,0.66,2.55,0.74,3.56,1.32C-22701.6-4667.57-22701.83-4666.37-22701.13-4666.87z"/>
	<path id="路径_4714" class="st3" d="M-22752.96-4713.51c0.57,2.25,1.39,4.42,2.46,6.48l0.6,0.51l0,0
		c1.32,1.43-0.46-0.32,0.32,0.46l2.55-2.83c-1.57-1.85-4.61-3.33-6.02-5.51L-22752.96-4713.51z"/>
	<path id="路径_4715" class="st3" d="M-22756.75-4722.78l0.79,0.23c0.6-1.01,2.13-2.27,2.55-3.29l-2.04-0.37
		c-0.69-0.28-0.23,0-0.69-0.46l-2.27-0.42L-22756.75-4722.78z"/>
	<path id="路径_4716" class="st5" d="M-22556.03-4783.99L-22556.03-4783.99l-2.41-1.07c-3.99-2.08-5.54-7-3.46-10.99
		c2.08-3.99,7-5.54,10.99-3.46c3.99,2.08,5.54,7,3.46,10.99c-0.54,1.04-1.31,1.96-2.24,2.68c-0.1,2.07,0.73,4.07,2.27,5.46
		c4.09,6.85,9.6,12.74,16.16,17.27c2.27,1.51,5.35,0.9,6.86-1.37c0.06-0.09,0.12-0.19,0.18-0.29c2.96-3.96,5.68-8.08,8.15-12.36
		c1.52-1.98,2.77-4.17,3.7-6.48c-1.23-1.4-1.95-3.19-2.04-5.05c-0.08-1.91,0.56-3.78,1.8-5.23c3.08-3.28,8.24-3.44,11.53-0.36
		c2.12,1.99,3.02,4.95,2.37,7.77c-1.39,5.42-6.95,5.42-7.69,6.07c-1.28,2.97-2.18,6.08-2.69,9.27l-4.91,18.52
		c-0.42,1.53-0.79,3.02-1.16,4.61c-0.66,2.92,0.37,2.97,0.66,5.37c-12.38-0.56-24.79,0.06-37.05,1.86
		c-2.73,0.45-5.74,0.66-8.56,1.32c-2.82,0.66-5.23,1.11-7.9,1.58c-2.68,0.47-13.89,3.75-15.1,3.66c-0.6-2.32,0.6-3.75-0.32-5.88
		l-6.81-13.12c-1.21-2.22-8.48-16.58-9.26-17.04c-3.58,0.07-6.8-2.15-8.01-5.51c-1.44-4.26,0.86-8.89,5.12-10.32
		c2.79-0.94,5.87-0.3,8.05,1.67c2.71,2.7,3.34,6.86,1.53,10.23c0.79,0.93,1.57,1.53,2.41,2.63c1.41,1.94,3.08,3.69,4.95,5.19
		c3.19,3.15,11.12,10.74,15.7,8.71C-22566.26-4758.99-22557.38-4778.48-22556.03-4783.99z"/>
</g>
</svg>
